<mxfile host="app.diagrams.net" modified="2023-04-13T07:44:16.270Z" agent="5.0 (Windows NT 10.0; Win64; x64) AppleWebKit/537.36 (KHTML, like Gecko) Chrome/111.0.0.0 Safari/537.36" etag="GoTSVfI8inM4BR1Usigi" version="20.8.14" type="github">
  <diagram name="Page-1" id="QTnfMynulflLVA0IjACa">
    <mxGraphModel dx="1834" dy="1108" grid="0" gridSize="10" guides="1" tooltips="1" connect="1" arrows="1" fold="1" page="0" pageScale="1" pageWidth="827" pageHeight="1169" math="0" shadow="0">
      <root>
        <mxCell id="0" />
        <mxCell id="1" parent="0" />
        <mxCell id="c72uq0GTuiKc_WwMszSH-5" style="edgeStyle=orthogonalEdgeStyle;rounded=0;orthogonalLoop=1;jettySize=auto;html=1;exitX=0.5;exitY=1;exitDx=0;exitDy=0;labelBackgroundColor=none;strokeColor=#788AA3;fontColor=default;" edge="1" parent="1" source="c72uq0GTuiKc_WwMszSH-1" target="c72uq0GTuiKc_WwMszSH-4">
          <mxGeometry relative="1" as="geometry" />
        </mxCell>
        <mxCell id="c72uq0GTuiKc_WwMszSH-1" value="submit" style="rounded=1;whiteSpace=wrap;html=1;labelBackgroundColor=none;fillColor=#B2C9AB;strokeColor=#788AA3;fontColor=#46495D;" vertex="1" parent="1">
          <mxGeometry x="147" y="-118" width="120" height="60" as="geometry" />
        </mxCell>
        <mxCell id="c72uq0GTuiKc_WwMszSH-2" value="入参：creditApplicationNumber" style="text;html=1;strokeColor=none;fillColor=none;align=center;verticalAlign=middle;whiteSpace=wrap;rounded=0;labelBackgroundColor=none;fontColor=#46495D;" vertex="1" parent="1">
          <mxGeometry x="108" y="-169" width="198" height="26" as="geometry" />
        </mxCell>
        <mxCell id="c72uq0GTuiKc_WwMszSH-7" value="" style="edgeStyle=orthogonalEdgeStyle;rounded=0;orthogonalLoop=1;jettySize=auto;html=1;labelBackgroundColor=none;strokeColor=#788AA3;fontColor=default;" edge="1" parent="1" source="c72uq0GTuiKc_WwMszSH-4" target="c72uq0GTuiKc_WwMszSH-6">
          <mxGeometry relative="1" as="geometry" />
        </mxCell>
        <mxCell id="c72uq0GTuiKc_WwMszSH-4" value="校验" style="shape=process;whiteSpace=wrap;html=1;backgroundOutline=1;labelBackgroundColor=none;fillColor=#B2C9AB;strokeColor=#788AA3;fontColor=#46495D;" vertex="1" parent="1">
          <mxGeometry x="147" y="44" width="120" height="60" as="geometry" />
        </mxCell>
        <mxCell id="c72uq0GTuiKc_WwMszSH-9" value="否" style="edgeStyle=orthogonalEdgeStyle;rounded=0;orthogonalLoop=1;jettySize=auto;html=1;exitX=0;exitY=0.5;exitDx=0;exitDy=0;entryX=1;entryY=0.5;entryDx=0;entryDy=0;labelBackgroundColor=none;strokeColor=#788AA3;fontColor=default;" edge="1" parent="1" source="c72uq0GTuiKc_WwMszSH-6" target="c72uq0GTuiKc_WwMszSH-8">
          <mxGeometry relative="1" as="geometry" />
        </mxCell>
        <mxCell id="c72uq0GTuiKc_WwMszSH-11" value="是" style="edgeStyle=orthogonalEdgeStyle;rounded=0;orthogonalLoop=1;jettySize=auto;html=1;exitX=0.5;exitY=1;exitDx=0;exitDy=0;labelBackgroundColor=none;strokeColor=#788AA3;fontColor=default;" edge="1" parent="1" source="c72uq0GTuiKc_WwMszSH-6" target="c72uq0GTuiKc_WwMszSH-10">
          <mxGeometry relative="1" as="geometry" />
        </mxCell>
        <mxCell id="c72uq0GTuiKc_WwMszSH-6" value="校验通过" style="rhombus;whiteSpace=wrap;html=1;labelBackgroundColor=none;fillColor=#B2C9AB;strokeColor=#788AA3;fontColor=#46495D;" vertex="1" parent="1">
          <mxGeometry x="167" y="174" width="80" height="80" as="geometry" />
        </mxCell>
        <mxCell id="c72uq0GTuiKc_WwMszSH-8" value="抛异常" style="rounded=1;whiteSpace=wrap;html=1;labelBackgroundColor=none;fillColor=#B2C9AB;strokeColor=#788AA3;fontColor=#46495D;" vertex="1" parent="1">
          <mxGeometry x="-49" y="184" width="120" height="60" as="geometry" />
        </mxCell>
        <mxCell id="c72uq0GTuiKc_WwMszSH-10" value="结束" style="rounded=1;whiteSpace=wrap;html=1;labelBackgroundColor=none;fillColor=#B2C9AB;strokeColor=#788AA3;fontColor=#46495D;" vertex="1" parent="1">
          <mxGeometry x="147" y="320" width="120" height="60" as="geometry" />
        </mxCell>
      </root>
    </mxGraphModel>
  </diagram>
</mxfile>
